<svg xmlns="http://www.w3.org/2000/svg" viewBox="0 0 1600 1000" preserveAspectRatio="xMidYMid slice">
  <defs>
    <linearGradient id="base" x1="0" y1="0" x2="1" y2="1">
      <stop offset="0%" stop-color="#0a1a13"/>
      <stop offset="52%" stop-color="#0f2a1b"/>
      <stop offset="100%" stop-color="#123523"/>
    </linearGradient>
    <radialGradient id="orbA" cx="0.2" cy="0.2" r="0.55">
      <stop offset="0%" stop-color="#55c487" stop-opacity="0.78"/>
      <stop offset="100%" stop-color="#55c487" stop-opacity="0"/>
    </radialGradient>
    <radialGradient id="orbB" cx="0.84" cy="0.26" r="0.5">
      <stop offset="0%" stop-color="#1f7c53" stop-opacity="0.65"/>
      <stop offset="100%" stop-color="#1f7c53" stop-opacity="0"/>
    </radialGradient>
    <radialGradient id="orbC" cx="0.7" cy="0.86" r="0.66">
      <stop offset="0%" stop-color="#2aa466" stop-opacity="0.48"/>
      <stop offset="100%" stop-color="#2aa466" stop-opacity="0"/>
    </radialGradient>
    <pattern id="grid" width="72" height="72" patternUnits="userSpaceOnUse">
      <path d="M72 0H0V72" fill="none" stroke="#c8f8de" stroke-opacity="0.065" stroke-width="1"/>
    </pattern>
  </defs>

  <rect width="1600" height="1000" fill="url(#base)"/>
  <rect width="1600" height="1000" fill="url(#orbA)"/>
  <rect width="1600" height="1000" fill="url(#orbB)"/>
  <rect width="1600" height="1000" fill="url(#orbC)"/>
  <rect width="1600" height="1000" fill="url(#grid)"/>

  <g fill="none" stroke="#b9f3d3" stroke-opacity="0.14" stroke-width="1.2">
    <path d="M-120 840C230 720 350 430 780 390C1120 358 1260 210 1720 170"/>
    <path d="M-160 920C320 790 490 650 760 560C1040 466 1280 320 1720 260"/>
    <path d="M-100 1010C210 880 360 800 660 760C1010 712 1230 560 1720 450"/>
  </g>
</svg>
